<svg xmlns="http://www.w3.org/2000/svg" width="31" height="30" viewBox="0 0 31 30" fill="none">
  <path fill-rule="evenodd" clip-rule="evenodd" d="M15.5 3C12.1865 3 9.49998 5.6865 9.49998 9V10.5H7.99998C7.23498 10.5 6.593 11.0745 6.509 11.835L5.009 25.335C4.9625 25.758 5.09749 26.1825 5.38249 26.5005C5.66749 26.8185 6.07398 27 6.49998 27H24.5C24.926 27 25.3325 26.8185 25.6175 26.5005C25.9025 26.1825 26.0375 25.758 25.991 25.335L24.491 11.835C24.407 11.0745 23.765 10.5 23 10.5H21.5V9C21.5 5.6865 18.8135 3 15.5 3ZM18.5 10.5V9C18.5 7.3425 17.1575 6 15.5 6C13.8425 6 12.5 7.3425 12.5 9V10.5H18.5ZM9.49998 15C9.49998 14.172 10.172 13.5 11 13.5C11.828 13.5 12.5 14.172 12.5 15C12.5 15.828 11.828 16.5 11 16.5C10.172 16.5 9.49998 15.828 9.49998 15ZM20 13.5C19.172 13.5 18.5 14.172 18.5 15C18.5 15.828 19.172 16.5 20 16.5C20.828 16.5 21.5 15.828 21.5 15C21.5 14.172 20.828 13.5 20 13.5Z" fill="#222324"/>
</svg>