<svg xmlns="http://www.w3.org/2000/svg" width="31" height="30" viewBox="0 0 31 30" fill="none">
<path fill-rule="evenodd" clip-rule="evenodd" d="M5.25794 7.75849C6.38311 6.63366 7.90895 6.00177 9.49994 6.00177C11.0909 6.00177 12.6168 6.63366 13.7419 7.75849L15.4999 9.51499L17.2579 7.75849C17.8114 7.18543 18.4735 6.72833 19.2055 6.41388C19.9375 6.09942 20.7249 5.93391 21.5215 5.92698C22.3182 5.92006 23.1083 6.07187 23.8457 6.37356C24.583 6.67524 25.253 7.12076 25.8163 7.68412C26.3797 8.24747 26.8252 8.91738 27.1269 9.65476C27.4286 10.3921 27.5804 11.1822 27.5734 11.9789C27.5665 12.7756 27.401 13.5629 27.0865 14.2949C26.7721 15.0269 26.315 15.689 25.7419 16.2425L15.4999 26.486L5.25794 16.2425C4.13311 15.1173 3.50122 13.5915 3.50122 12.0005C3.50122 10.4095 4.13311 8.88365 5.25794 7.75849Z" fill="#222324"/>
</svg>