<svg xmlns="http://www.w3.org/2000/svg" width="31" height="30" viewBox="0 0 31 30" fill="none">
  <path fill-rule="evenodd" clip-rule="evenodd" d="M3.749 7.49852C8.0917 7.44452 12.2672 5.81621 15.5 2.91602C18.7326 5.81675 22.9081 7.4456 27.251 7.50002C27.416 8.47502 27.5 9.48002 27.5 10.5015C27.5 18.339 22.49 25.0065 15.5 27.477C8.51 25.005 3.5 18.3375 3.5 10.5C3.5 9.47702 3.5855 8.47502 3.749 7.49852ZM21.0605 13.0605C21.3337 12.7776 21.4849 12.3987 21.4815 12.0054C21.4781 11.6121 21.3203 11.2359 21.0422 10.9578C20.7641 10.6797 20.3879 10.5219 19.9946 10.5185C19.6013 10.5151 19.2224 10.6663 18.9395 10.9395L14 15.879L12.0605 13.9395C11.7776 13.6663 11.3987 13.5151 11.0054 13.5185C10.6121 13.5219 10.2359 13.6797 9.95777 13.9578C9.67966 14.2359 9.52191 14.6121 9.51849 15.0054C9.51507 15.3987 9.66626 15.7776 9.9395 16.0605L12.9395 19.0605C13.2208 19.3417 13.6023 19.4997 14 19.4997C14.3977 19.4997 14.7792 19.3417 15.0605 19.0605L21.0605 13.0605Z" fill="#222324"/>
</svg>