<svg xmlns="http://www.w3.org/2000/svg" width="31" height="30" viewBox="0 0 31 30" fill="none">
  <path d="M3.5 7.5C3.5 6.70435 3.81607 5.94129 4.37868 5.37868C4.94129 4.81607 5.70435 4.5 6.5 4.5H17C17.7956 4.5 18.5587 4.81607 19.1213 5.37868C19.6839 5.94129 20 6.70435 20 7.5V13.5C20 14.2956 19.6839 15.0587 19.1213 15.6213C18.5587 16.1839 17.7956 16.5 17 16.5H14L9.5 21V16.5H6.5C5.70435 16.5 4.94129 16.1839 4.37868 15.6213C3.81607 15.0587 3.5 14.2956 3.5 13.5V7.5Z" fill="#222324"/>
  <path d="M23 10.5V13.5C23 15.0913 22.3679 16.6174 21.2427 17.7426C20.1174 18.8679 18.5913 19.5 17 19.5H15.242L12.593 22.1505C13.013 22.374 13.4915 22.5 14 22.5H17L21.5 27V22.5H24.5C25.2957 22.5 26.0587 22.1839 26.6213 21.6213C27.1839 21.0587 27.5 20.2956 27.5 19.5V13.5C27.5 12.7044 27.1839 11.9413 26.6213 11.3787C26.0587 10.8161 25.2957 10.5 24.5 10.5H23Z" fill="#222324"/>
</svg>